<svg width="70" height="70" viewBox="0 0 70 70" fill="none" xmlns="http://www.w3.org/2000/svg">
<g filter="url(#filter0_d)">
<circle cx="35" cy="31" r="30" stroke="white" stroke-opacity="0.2"/>
<ellipse cx="35" cy="31" rx="20" ry="20" fill="white"/>
<path d="M34.3359 35.25L29.0234 29.9375C28.8411 29.7552 28.75 29.5339 28.75 29.2734C28.75 29.013 28.8411 28.7917 29.0234 28.6094L29.9219 27.75C30.1042 27.5677 30.3255 27.4766 30.5859 27.4766C30.8464 27.4766 31.0677 27.5677 31.25 27.75L35 31.5L38.75 27.75C38.9323 27.5677 39.1536 27.4766 39.4141 27.4766C39.6745 27.4766 39.8958 27.5677 40.0781 27.75L40.9766 28.6094C41.1589 28.7917 41.25 29.013 41.25 29.2734C41.25 29.5339 41.1589 29.7552 40.9766 29.9375L35.6641 35.25C35.4818 35.4323 35.2604 35.5234 35 35.5234C34.7396 35.5234 34.5182 35.4323 34.3359 35.25Z" fill="#333333"/>
</g>
<defs>
<filter id="filter0_d" x="0.5" y="0.5" width="69" height="69" filterUnits="userSpaceOnUse" color-interpolation-filters="sRGB">
<feFlood flood-opacity="0" result="BackgroundImageFix"/>
<feColorMatrix in="SourceAlpha" type="matrix" values="0 0 0 0 0 0 0 0 0 0 0 0 0 0 0 0 0 0 127 0" result="hardAlpha"/>
<feOffset dy="4"/>
<feGaussianBlur stdDeviation="2"/>
<feComposite in2="hardAlpha" operator="out"/>
<feColorMatrix type="matrix" values="0 0 0 0 0 0 0 0 0 0 0 0 0 0 0 0 0 0 0.25 0"/>
<feBlend mode="normal" in2="BackgroundImageFix" result="effect1_dropShadow"/>
<feBlend mode="normal" in="SourceGraphic" in2="effect1_dropShadow" result="shape"/>
</filter>
</defs>
</svg>
