<svg aria-hidden="true" style="position: absolute; width: 0; height: 0; overflow: hidden;" version="1.1" xmlns="http://www.w3.org/2000/svg" xmlns:xlink="http://www.w3.org/1999/xlink">
<defs>
<symbol id="icon-down-btn" viewBox="0 0 32 32">
<path fill="none" stroke="#fff" style="stroke: var(--color1, #fff)" stroke-linejoin="miter" stroke-linecap="butt" stroke-miterlimit="4" stroke-width="0.4571" d="M29.714 14.171c0 7.574-6.14 13.714-13.714 13.714s-13.714-6.14-13.714-13.714c0-7.574 6.14-13.714 13.714-13.714s13.714 6.14 13.714 13.714z"></path>
<path fill="#fff" style="fill: var(--color1, #fff)" d="M25.143 14.171c0 5.049-4.093 9.143-9.143 9.143s-9.143-4.093-9.143-9.143c0-5.049 4.093-9.143 9.143-9.143s9.143 4.093 9.143 9.143z"></path>
<path fill="#333" style="fill: var(--color2, #333)" d="M15.696 16.114l-2.429-2.429c-0.083-0.083-0.125-0.184-0.125-0.304s0.042-0.22 0.125-0.304l0.411-0.393c0.083-0.083 0.184-0.125 0.304-0.125s0.22 0.042 0.304 0.125l1.714 1.714 1.714-1.714c0.083-0.083 0.184-0.125 0.304-0.125s0.22 0.042 0.304 0.125l0.411 0.393c0.083 0.083 0.125 0.184 0.125 0.304s-0.042 0.22-0.125 0.304l-2.429 2.429c-0.083 0.083-0.185 0.125-0.304 0.125s-0.22-0.042-0.304-0.125z"></path>
</symbol>
<symbol id="icon-facebook" viewBox="0 0 32 32">
<path fill="none" stroke="#fff" style="stroke: var(--color1, #fff)" stroke-linejoin="miter" stroke-linecap="butt" stroke-miterlimit="4" stroke-width="0.4571" d="M29.714 14.171c0 7.574-6.14 13.714-13.714 13.714s-13.714-6.14-13.714-13.714c0-7.574 6.14-13.714 13.714-13.714s13.714 6.14 13.714 13.714z"></path>
<path fill="#fff" style="fill: var(--color1, #fff)" d="M15.018 19.193v-4.089h-1.375v-1.625h1.375v-1.286c0-0.679 0.19-1.202 0.571-1.571 0.381-0.381 0.887-0.571 1.518-0.571 0.512 0 0.929 0.024 1.25 0.071v1.446h-0.857c-0.321 0-0.542 0.071-0.661 0.214-0.095 0.119-0.143 0.31-0.143 0.571v1.125h1.518l-0.214 1.625h-1.304v4.089h-1.679z"></path>
</symbol>
<symbol id="icon-instagram" viewBox="0 0 32 32">
<path fill="none" stroke="#fff" style="stroke: var(--color1, #fff)" stroke-linejoin="miter" stroke-linecap="butt" stroke-miterlimit="4" stroke-width="0.4571" d="M29.714 14.171c0 7.574-6.14 13.714-13.714 13.714s-13.714-6.14-13.714-13.714c0-7.574 6.14-13.714 13.714-13.714s13.714 6.14 13.714 13.714z"></path>
<path fill="#fff" style="fill: var(--color1, #fff)" d="M16 12.568c-0.369 0-0.714 0.095-1.036 0.286-0.31 0.179-0.56 0.429-0.75 0.75-0.179 0.31-0.268 0.649-0.268 1.018s0.089 0.714 0.268 1.036c0.19 0.31 0.44 0.56 0.75 0.75 0.321 0.179 0.667 0.268 1.036 0.268s0.708-0.089 1.018-0.268c0.321-0.19 0.571-0.44 0.75-0.75 0.191-0.321 0.286-0.667 0.286-1.036s-0.095-0.708-0.286-1.018c-0.179-0.321-0.429-0.571-0.75-0.75-0.31-0.191-0.649-0.286-1.018-0.286zM16 15.96c-0.369 0-0.685-0.131-0.946-0.393s-0.393-0.577-0.393-0.946c0-0.369 0.131-0.685 0.393-0.946s0.577-0.393 0.946-0.393c0.369 0 0.685 0.131 0.946 0.393s0.393 0.577 0.393 0.946c0 0.369-0.131 0.685-0.393 0.946s-0.577 0.393-0.946 0.393zM18.625 12.478c-0.012 0.131-0.065 0.244-0.161 0.339-0.083 0.095-0.19 0.143-0.321 0.143s-0.244-0.048-0.339-0.143c-0.095-0.095-0.143-0.208-0.143-0.339s0.048-0.244 0.143-0.339 0.208-0.143 0.339-0.143c0.131 0 0.244 0.048 0.339 0.143s0.143 0.208 0.143 0.339zM19.982 12.96c-0.024-0.345-0.077-0.643-0.161-0.893-0.107-0.298-0.274-0.554-0.5-0.768-0.214-0.226-0.47-0.393-0.768-0.5-0.25-0.083-0.548-0.131-0.893-0.143-0.333-0.024-0.887-0.036-1.661-0.036s-1.333 0.012-1.679 0.036c-0.333 0.012-0.625 0.060-0.875 0.143-0.298 0.107-0.56 0.274-0.786 0.5-0.214 0.214-0.375 0.47-0.482 0.768-0.083 0.25-0.137 0.548-0.161 0.893-0.012 0.333-0.018 0.887-0.018 1.661s0.006 1.333 0.018 1.679c0.024 0.333 0.077 0.625 0.161 0.875 0.107 0.298 0.268 0.56 0.482 0.786 0.226 0.214 0.488 0.369 0.786 0.464 0.25 0.095 0.542 0.149 0.875 0.161 0.345 0.024 0.905 0.036 1.679 0.036s1.327-0.012 1.661-0.036c0.345-0.012 0.643-0.060 0.893-0.143 0.298-0.107 0.554-0.268 0.768-0.482 0.226-0.226 0.393-0.488 0.5-0.786 0.083-0.25 0.131-0.542 0.143-0.875 0.024-0.345 0.036-0.905 0.036-1.679s-0.006-1.327-0.018-1.661zM19.125 16.978c-0.143 0.357-0.399 0.613-0.768 0.768-0.19 0.071-0.512 0.119-0.964 0.143-0.25 0.012-0.619 0.018-1.107 0.018h-0.571c-0.476 0-0.845-0.006-1.107-0.018-0.44-0.024-0.762-0.071-0.964-0.143-0.357-0.143-0.613-0.399-0.768-0.768-0.071-0.202-0.119-0.524-0.143-0.964-0.012-0.262-0.018-0.631-0.018-1.107v-0.571c0-0.476 0.006-0.845 0.018-1.107 0.024-0.452 0.071-0.774 0.143-0.964 0.143-0.369 0.399-0.625 0.768-0.768 0.202-0.071 0.524-0.119 0.964-0.143 0.262-0.012 0.631-0.018 1.107-0.018h0.571c0.476 0 0.845 0.006 1.107 0.018 0.452 0.024 0.774 0.071 0.964 0.143 0.369 0.143 0.625 0.399 0.768 0.768 0.071 0.191 0.119 0.512 0.143 0.964 0.012 0.25 0.018 0.619 0.018 1.107v0.571c0 0.476-0.006 0.845-0.018 1.107-0.024 0.44-0.071 0.762-0.143 0.964z"></path>
</symbol>
<symbol id="icon-rectangle" viewBox="0 0 155 32">
<path fill="#e8c300" style="fill: var(--color3, #e8c300)" d="M14.98 0.49h125.469c3.224 0 5.837 2.613 5.837 5.837s-2.613 5.837-5.837 5.837h-125.469c-3.224 0-5.837-2.613-5.837-5.837s2.613-5.837 5.837-5.837z"></path>
</symbol>
<symbol id="icon-twitter" viewBox="0 0 32 32">
<path fill="none" stroke="#fff" style="stroke: var(--color1, #fff)" stroke-linejoin="miter" stroke-linecap="butt" stroke-miterlimit="4" stroke-width="0.4571" d="M29.714 14.171c0 7.574-6.14 13.714-13.714 13.714s-13.714-6.14-13.714-13.714c0-7.574 6.14-13.714 13.714-13.714s13.714 6.14 13.714 13.714z"></path>
<path fill="#fff" style="fill: var(--color1, #fff)" d="M19.625 12.764c0.012 0.048 0.018 0.125 0.018 0.232 0 0.857-0.208 1.685-0.625 2.482-0.429 0.845-1.030 1.518-1.804 2.018-0.845 0.56-1.815 0.839-2.911 0.839-1.048 0-2.006-0.28-2.875-0.839 0.131 0.012 0.28 0.018 0.446 0.018 0.869 0 1.649-0.268 2.339-0.804-0.417 0-0.786-0.119-1.107-0.357-0.31-0.25-0.524-0.559-0.643-0.929 0.119 0.012 0.232 0.018 0.339 0.018 0.167 0 0.333-0.018 0.5-0.054-0.429-0.095-0.786-0.315-1.071-0.661s-0.429-0.738-0.429-1.179v-0.036c0.262 0.155 0.542 0.238 0.839 0.25-0.25-0.179-0.452-0.405-0.607-0.679s-0.232-0.571-0.232-0.893c0-0.333 0.089-0.649 0.268-0.946 0.464 0.583 1.030 1.048 1.696 1.393 0.679 0.345 1.399 0.536 2.161 0.571-0.024-0.143-0.036-0.286-0.036-0.429 0-0.333 0.083-0.643 0.25-0.929 0.167-0.298 0.393-0.53 0.679-0.696s0.595-0.25 0.929-0.25c0.274 0 0.524 0.054 0.75 0.161 0.238 0.107 0.446 0.25 0.625 0.429 0.429-0.083 0.827-0.232 1.196-0.446-0.143 0.44-0.417 0.786-0.821 1.036 0.357-0.048 0.714-0.149 1.071-0.304-0.262 0.381-0.577 0.708-0.946 0.982z"></path>
</symbol>
<symbol id="icon-vector" viewBox="0 0 32 32">
<path fill="#ffd600" style="fill: var(--color4, #ffd600)" d="M31.219 14.737c-0.3 0-1.441 0.421-2.041 0.662-0.060-0.241-0.3-0.421-0.6-0.421s-0.601 0.18-0.601 0.421l-1.141-0.18c-0.18-2.466-1.141-4.632-2.642-6.376l0.66-0.962c0.18 0.12 0.54 0.12 0.72-0.12 0.24-0.241 0.3-0.541 0.12-0.722 0.601-0.241 1.741-0.722 1.921-0.962 0.24-0.301 0.060-0.902-0.36-1.383-0.48-0.421-1.081-0.601-1.381-0.361-0.24 0.18-0.721 1.323-0.961 1.925-0.18-0.12-0.54-0.060-0.72 0.12-0.24 0.241-0.3 0.541-0.12 0.722l-0.961 0.662c-1.741-1.504-3.962-2.466-6.364-2.647l-0.18-1.143c0.24-0.060 0.42-0.301 0.42-0.602s-0.18-0.541-0.42-0.602c0.24-0.602 0.66-1.744 0.66-2.045-0.060-0.421-0.6-0.722-1.261-0.722s-1.201 0.301-1.261 0.722c0 0.301 0.42 1.444 0.66 2.045-0.24 0.060-0.42 0.301-0.42 0.602s0.18 0.602 0.42 0.602l-0.18 1.143c-2.462 0.18-4.623 1.143-6.364 2.647l-0.961-0.662c0.12-0.18 0.12-0.541-0.12-0.722-0.24-0.241-0.54-0.301-0.72-0.12-0.24-0.601-0.72-1.684-0.961-1.925-0.3-0.241-0.901-0.060-1.321 0.421-0.48 0.421-0.66 1.023-0.42 1.383 0.18 0.241 1.321 0.722 1.921 0.962-0.12 0.18-0.060 0.541 0.12 0.722 0.24 0.241 0.54 0.301 0.72 0.12l0.66 0.962c-1.501 1.744-2.462 3.97-2.642 6.376l-1.141 0.18c-0.060-0.241-0.3-0.421-0.6-0.421s-0.54 0.18-0.6 0.421c-0.6-0.241-1.741-0.662-2.041-0.662-0.42 0.060-0.72 0.601-0.72 1.263s0.3 1.203 0.72 1.263c0.3 0 1.441-0.421 2.041-0.662 0.060 0.241 0.3 0.421 0.6 0.421s0.6-0.18 0.6-0.421l1.141 0.18c0.18 2.466 1.141 4.632 2.642 6.376l-0.6 0.902c-0.18-0.12-0.54-0.12-0.72 0.12-0.24 0.241-0.3 0.541-0.12 0.722-0.6 0.241-1.681 0.722-1.921 0.963-0.24 0.301-0.060 0.902 0.36 1.383 0.48 0.481 1.081 0.662 1.381 0.361 0.24-0.18 0.72-1.323 0.961-1.925 0.18 0.12 0.54 0.060 0.72-0.12 0.24-0.241 0.3-0.541 0.12-0.722l0.961-0.662c1.741 1.504 3.962 2.466 6.364 2.647l0.18 1.143c-0.24 0.060-0.42 0.301-0.42 0.602s0.18 0.541 0.42 0.601c-0.24 0.602-0.66 1.744-0.66 2.045 0.060 0.421 0.6 0.722 1.261 0.722s1.201-0.301 1.261-0.722c0-0.301-0.42-1.444-0.66-2.045 0.24-0.060 0.42-0.301 0.42-0.601s-0.18-0.602-0.42-0.602l0.18-1.143c2.462-0.18 4.623-1.143 6.364-2.647l0.961 0.662c-0.12 0.18-0.12 0.541 0.12 0.722 0.24 0.241 0.54 0.301 0.72 0.12 0.24 0.601 0.72 1.744 0.961 1.925 0.3 0.241 0.9 0.060 1.381-0.361 0.48-0.481 0.66-1.083 0.36-1.383-0.18-0.241-1.321-0.722-1.921-0.963 0.12-0.18 0.060-0.541-0.12-0.722-0.24-0.241-0.54-0.301-0.72-0.12l-0.66-0.962c1.501-1.744 2.462-3.97 2.642-6.376l1.141-0.18c0.060 0.241 0.3 0.421 0.6 0.421s0.54-0.18 0.6-0.421c0.601 0.241 1.741 0.662 2.041 0.662 0.42-0.060 0.72-0.602 0.72-1.263-0.12-0.601-0.42-1.203-0.781-1.263zM6.604 16.421c-0.24 0-0.42-0.18-0.42-0.421s0.18-0.421 0.42-0.421c0.24 0 0.42 0.18 0.42 0.421s-0.18 0.421-0.42 0.421zM22.274 9.083c0.18-0.18 0.42-0.18 0.6 0s0.18 0.421 0 0.601c-0.18 0.18-0.42 0.18-0.6 0-0.12-0.18-0.12-0.421 0-0.601zM15.97 6.256c0.24 0 0.42 0.18 0.42 0.421s-0.18 0.421-0.42 0.421c-0.24 0-0.42-0.18-0.42-0.421s0.18-0.421 0.42-0.421zM9.066 9.083c0.18-0.18 0.42-0.18 0.6 0s0.18 0.421 0 0.601c-0.18 0.18-0.42 0.18-0.6 0-0.12-0.18-0.12-0.421 0-0.601zM10.146 10.827l0.48 0.481c0.12 0.12 0.24 0.12 0.36 0.060l0.66 0.662c-0.18 0.421 0 1.083 0.54 1.624 0.6 0.601 1.441 0.782 1.801 0.421-0.48 0.481-0.78 1.143-0.78 1.865v-0.18h-2.341c-0.060 0-0.12-0.060-0.12-0.18s0.060-0.18 0.12-0.18h2.462v-0.060c0-0.18-0.18-0.361-0.36-0.361h-2.341c-0.12 0-0.42 0.361-0.6 0.662h-0.72c-0.060-0.12-0.18-0.241-0.3-0.241h-0.78c0.12-1.684 0.78-3.308 1.921-4.571zM9.666 22.917c-0.18 0.18-0.42 0.18-0.6 0s-0.18-0.421 0-0.602c0.18-0.18 0.42-0.18 0.6 0s0.18 0.421 0 0.602zM10.146 21.173c-1.141-1.263-1.861-2.947-1.981-4.752h0.78c0.12 0 0.3-0.12 0.3-0.241h0.66c0.18 0.301 0.48 0.722 0.6 0.722h2.341c0.18 0 0.36-0.12 0.36-0.301v-0.12h-2.341c-0.060 0-0.12-0.060-0.12-0.18s0.060-0.18 0.12-0.18h2.462v-0.18c0 0.722 0.3 1.383 0.78 1.865-0.36-0.361-1.201-0.18-1.801 0.421-0.54 0.541-0.72 1.203-0.54 1.624l-0.66 0.662c-0.12-0.060-0.3-0.060-0.36 0.060l-0.6 0.602zM15.97 25.805c-0.24 0-0.42-0.18-0.42-0.421s0.18-0.421 0.42-0.421c0.24 0 0.42 0.18 0.42 0.421s-0.18 0.421-0.42 0.421zM22.874 22.917c-0.18 0.18-0.42 0.18-0.6 0s-0.18-0.421 0-0.602c0.18-0.18 0.42-0.18 0.6 0s0.18 0.421 0 0.602zM21.794 21.173l-0.48-0.481c-0.12-0.12-0.24-0.12-0.36-0.060l-0.66-0.662c0.18-0.421-0-1.083-0.54-1.624-0.6-0.602-1.441-0.782-1.801-0.421s-0.18 1.203 0.42 1.805c0.54 0.541 1.201 0.722 1.621 0.541l0.66 0.662c-0.060 0.12-0.060 0.301 0.060 0.361l0.48 0.481c-1.261 1.143-2.882 1.865-4.683 1.985v-0.782c0-0.12-0.12-0.301-0.24-0.301v-0.722c0.24-0.18 0.66-0.481 0.66-0.602v-2.346c0-0.18-0.18-0.361-0.36-0.361h-0.060v2.466c0 0.060-0.060 0.12-0.18 0.12s-0.18-0.060-0.18-0.12v-2.406h-0.36v2.406c0 0.060-0.060 0.12-0.18 0.12s-0.18-0.060-0.18-0.12v-2.406h-0.12c-0.18 0-0.3 0.18-0.3 0.361v2.346c0 0.12 0.42 0.421 0.72 0.601v0.662c-0.12 0.060-0.24 0.18-0.24 0.301v0.782c-1.801-0.12-3.482-0.842-4.743-1.985l0.48-0.481c0.12-0.12 0.12-0.241 0.060-0.361l0.66-0.662c0.42 0.18 1.081 0 1.621-0.541 0.6-0.602 0.78-1.444 0.42-1.805 0.48 0.481 1.141 0.782 1.861 0.782 1.501 0 2.642-1.203 2.642-2.647 0-1.504-1.201-2.647-2.642-2.647-0.72 0-1.381 0.301-1.861 0.782 0.36-0.361 0.18-1.203-0.42-1.805-0.54-0.541-1.201-0.722-1.621-0.541l-0.66-0.662c0.060-0.12 0.060-0.301-0.060-0.361l-0.48-0.481c1.261-1.143 2.942-1.865 4.743-1.985v0.782c0 0.12 0.12 0.301 0.24 0.301v0.662c-0.3 0.18-0.72 0.481-0.72 0.601v2.346c0 0.18 0.12 0.361 0.3 0.361h0.12v-2.526c0-0.060 0.060-0.12 0.18-0.12s0.18 0.060 0.18 0.12v2.466h0.36v-2.466c0-0.060 0.060-0.12 0.18-0.12s0.18 0.060 0.18 0.12v2.466h0.060c0.18 0 0.36-0.18 0.36-0.361v-2.346c0-0.12-0.36-0.421-0.66-0.601v-0.722c0.12-0.060 0.24-0.18 0.24-0.301v-0.782c1.801 0.12 3.422 0.842 4.683 1.925l-0.48 0.481c-0.12 0.12-0.12 0.241-0.060 0.361l-0.66 0.662c-0.42-0.18-1.081 0-1.621 0.541-0.6 0.601-0.78 1.444-0.42 1.804s1.201 0.18 1.801-0.421c0.54-0.541 0.72-1.203 0.54-1.624l0.66-0.662c0.12 0.060 0.3 0.060 0.36-0.060l0.48-0.481c1.141 1.263 1.861 2.887 1.981 4.692h-0.781c-0.12 0-0.3 0.12-0.3 0.241h-0.72c-0.18-0.241-0.48-0.662-0.6-0.662h-2.342c-0.18 0-0.36 0.18-0.36 0.361v0.060h2.401c0.060 0 0.12 0.060 0.12 0.18s-0.060 0.18-0.12 0.18h-2.401v0.301h2.401c0.060 0 0.12 0.060 0.12 0.18s-0.060 0.18-0.12 0.18h-2.401v0.12c0 0.18 0.18 0.301 0.36 0.301h2.342c0.12 0 0.42-0.421 0.6-0.722h0.66c0.060 0.12 0.18 0.241 0.3 0.241h0.78c-0.060 1.865-0.78 3.489-1.921 4.752zM14.289 16c0-0.902 0.72-1.684 1.681-1.684 0.901 0 1.681 0.722 1.681 1.684 0 0.902-0.72 1.684-1.681 1.684-0.901 0-1.681-0.722-1.681-1.684zM25.336 16.421c-0.24 0-0.42-0.18-0.42-0.421s0.18-0.421 0.42-0.421c0.24 0 0.42 0.18 0.42 0.421s-0.18 0.421-0.42 0.421z"></path>
</symbol>
<symbol id="icon-yellow-cube-img" viewBox="0 0 31 32">
<path fill="none" stroke="#e8c300" style="stroke: var(--color3, #e8c300)" stroke-linejoin="miter" stroke-linecap="butt" stroke-miterlimit="4" stroke-width="2.8444" d="M7.467 7.111h17.067c0.196 0 0.356 0.159 0.356 0.356v17.067c0 0.196-0.159 0.356-0.356 0.356h-17.067c-0.196 0-0.356-0.159-0.356-0.356v-17.067c0-0.196 0.159-0.356 0.356-0.356z"></path>
</symbol>
<symbol id="icon-phone" viewBox="0 0 32 32">
<path d="M22 20c-2 2-2 4-4 4s-4-2-6-4-4-4-4-6 2-2 4-4-4-8-6-8-6 6-6 6c0 4 4.109 12.109 8 16s12 8 16 8c0 0 6-4 6-6s-6-8-8-6z"></path>
</symbol>
<symbol id="icon-envelop" viewBox="0 0 32 32">
<path d="M29 4h-26c-1.65 0-3 1.35-3 3v20c0 1.65 1.35 3 3 3h26c1.65 0 3-1.35 3-3v-20c0-1.65-1.35-3-3-3zM12.461 17.199l-8.461 6.59v-15.676l8.461 9.086zM5.512 8h20.976l-10.488 7.875-10.488-7.875zM12.79 17.553l3.21 3.447 3.21-3.447 6.58 8.447h-19.579l6.58-8.447zM19.539 17.199l8.461-9.086v15.676l-8.461-6.59z"></path>
</symbol>
<symbol id="icon-location" viewBox="0 0 32 32">
<path d="M16 0c-5.523 0-10 4.477-10 10 0 10 10 22 10 22s10-12 10-22c0-5.523-4.477-10-10-10zM16 16c-3.314 0-6-2.686-6-6s2.686-6 6-6 6 2.686 6 6-2.686 6-6 6z"></path>
</symbol>
<symbol id="icon-facebook1" viewBox="0 0 32 32">
<path d="M19 6h5v-6h-5c-3.86 0-7 3.14-7 7v3h-4v6h4v16h6v-16h5l1-6h-6v-3c0-0.542 0.458-1 1-1z"></path>
</symbol>
<symbol id="icon-instagram1" viewBox="0 0 32 32">
<path d="M16 2.881c4.275 0 4.781 0.019 6.462 0.094 1.563 0.069 2.406 0.331 2.969 0.55 0.744 0.288 1.281 0.638 1.837 1.194 0.563 0.563 0.906 1.094 1.2 1.838 0.219 0.563 0.481 1.412 0.55 2.969 0.075 1.688 0.094 2.194 0.094 6.463s-0.019 4.781-0.094 6.463c-0.069 1.563-0.331 2.406-0.55 2.969-0.288 0.744-0.637 1.281-1.194 1.837-0.563 0.563-1.094 0.906-1.837 1.2-0.563 0.219-1.413 0.481-2.969 0.55-1.688 0.075-2.194 0.094-6.463 0.094s-4.781-0.019-6.463-0.094c-1.563-0.069-2.406-0.331-2.969-0.55-0.744-0.288-1.281-0.637-1.838-1.194-0.563-0.563-0.906-1.094-1.2-1.837-0.219-0.563-0.481-1.413-0.55-2.969-0.075-1.688-0.094-2.194-0.094-6.463s0.019-4.781 0.094-6.463c0.069-1.563 0.331-2.406 0.55-2.969 0.288-0.744 0.638-1.281 1.194-1.838 0.563-0.563 1.094-0.906 1.838-1.2 0.563-0.219 1.412-0.481 2.969-0.55 1.681-0.075 2.188-0.094 6.463-0.094zM16 0c-4.344 0-4.887 0.019-6.594 0.094-1.7 0.075-2.869 0.35-3.881 0.744-1.056 0.412-1.95 0.956-2.837 1.85-0.894 0.888-1.438 1.781-1.85 2.831-0.394 1.019-0.669 2.181-0.744 3.881-0.075 1.713-0.094 2.256-0.094 6.6s0.019 4.887 0.094 6.594c0.075 1.7 0.35 2.869 0.744 3.881 0.413 1.056 0.956 1.95 1.85 2.837 0.887 0.887 1.781 1.438 2.831 1.844 1.019 0.394 2.181 0.669 3.881 0.744 1.706 0.075 2.25 0.094 6.594 0.094s4.888-0.019 6.594-0.094c1.7-0.075 2.869-0.35 3.881-0.744 1.050-0.406 1.944-0.956 2.831-1.844s1.438-1.781 1.844-2.831c0.394-1.019 0.669-2.181 0.744-3.881 0.075-1.706 0.094-2.25 0.094-6.594s-0.019-4.887-0.094-6.594c-0.075-1.7-0.35-2.869-0.744-3.881-0.394-1.063-0.938-1.956-1.831-2.844-0.887-0.887-1.781-1.438-2.831-1.844-1.019-0.394-2.181-0.669-3.881-0.744-1.712-0.081-2.256-0.1-6.6-0.1v0z"></path>
<path d="M16 7.781c-4.537 0-8.219 3.681-8.219 8.219s3.681 8.219 8.219 8.219 8.219-3.681 8.219-8.219c0-4.537-3.681-8.219-8.219-8.219zM16 21.331c-2.944 0-5.331-2.387-5.331-5.331s2.387-5.331 5.331-5.331c2.944 0 5.331 2.387 5.331 5.331s-2.387 5.331-5.331 5.331z"></path>
<path d="M26.462 7.456c0 1.060-0.859 1.919-1.919 1.919s-1.919-0.859-1.919-1.919c0-1.060 0.859-1.919 1.919-1.919s1.919 0.859 1.919 1.919z"></path>
</symbol>
<symbol id="icon-twitter1" viewBox="0 0 32 32">
<path d="M32 7.075c-1.175 0.525-2.444 0.875-3.769 1.031 1.356-0.813 2.394-2.1 2.887-3.631-1.269 0.75-2.675 1.3-4.169 1.594-1.2-1.275-2.906-2.069-4.794-2.069-3.625 0-6.563 2.938-6.563 6.563 0 0.512 0.056 1.012 0.169 1.494-5.456-0.275-10.294-2.888-13.531-6.862-0.563 0.969-0.887 2.1-0.887 3.3 0 2.275 1.156 4.287 2.919 5.463-1.075-0.031-2.087-0.331-2.975-0.819 0 0.025 0 0.056 0 0.081 0 3.181 2.263 5.838 5.269 6.437-0.55 0.15-1.131 0.231-1.731 0.231-0.425 0-0.831-0.044-1.237-0.119 0.838 2.606 3.263 4.506 6.131 4.563-2.25 1.762-5.075 2.813-8.156 2.813-0.531 0-1.050-0.031-1.569-0.094 2.913 1.869 6.362 2.95 10.069 2.95 12.075 0 18.681-10.006 18.681-18.681 0-0.287-0.006-0.569-0.019-0.85 1.281-0.919 2.394-2.075 3.275-3.394z"></path>
</symbol>
</defs>
</svg>
