<svg width="70" height="70" viewBox="0 0 70 70" fill="none" xmlns="http://www.w3.org/2000/svg">
<g filter="url(#filter0_d)">
<circle cx="35" cy="31" r="30" stroke="white" stroke-opacity="0.2"/>
<path d="M42.9297 27.9214C42.9557 28.0256 42.9688 28.1948 42.9688 28.4292C42.9688 30.3042 42.513 32.1141 41.6016 33.8589C40.6641 35.7078 39.349 37.1792 37.6562 38.2729C35.8073 39.4969 33.6849 40.1089 31.2891 40.1089C28.9974 40.1089 26.901 39.4969 25 38.2729C25.2865 38.299 25.612 38.312 25.9766 38.312C27.8776 38.312 29.5833 37.7261 31.0938 36.5542C30.1823 36.5542 29.375 36.2938 28.6719 35.7729C27.9948 35.2261 27.526 34.549 27.2656 33.7417C27.526 33.7677 27.7734 33.7808 28.0078 33.7808C28.3724 33.7808 28.737 33.7417 29.1016 33.6636C28.1641 33.4552 27.3828 32.9735 26.7578 32.2183C26.1328 31.4631 25.8203 30.6037 25.8203 29.6401V29.562C26.3932 29.9006 27.0052 30.0828 27.6562 30.1089C27.1094 29.7183 26.6667 29.2235 26.3281 28.6245C25.9896 28.0256 25.8203 27.3745 25.8203 26.6714C25.8203 25.9422 26.0156 25.2521 26.4062 24.6011C27.4219 25.8771 28.6589 26.8927 30.1172 27.6479C31.6016 28.4032 33.1771 28.8198 34.8438 28.8979C34.7917 28.5854 34.7656 28.2729 34.7656 27.9604C34.7656 27.2313 34.9479 26.5542 35.3125 25.9292C35.6771 25.2782 36.1719 24.7703 36.7969 24.4058C37.4219 24.0412 38.099 23.8589 38.8281 23.8589C39.4271 23.8589 39.974 23.9761 40.4688 24.2104C40.9896 24.4448 41.4453 24.7573 41.8359 25.1479C42.7734 24.9657 43.6458 24.6401 44.4531 24.1714C44.1406 25.1349 43.5417 25.8901 42.6562 26.437C43.4375 26.3328 44.2188 26.1115 45 25.7729C44.4271 26.6063 43.737 27.3224 42.9297 27.9214Z" fill="white"/>
</g>
<defs>
<filter id="filter0_d" x="0.5" y="0.5" width="69" height="69" filterUnits="userSpaceOnUse" color-interpolation-filters="sRGB">
<feFlood flood-opacity="0" result="BackgroundImageFix"/>
<feColorMatrix in="SourceAlpha" type="matrix" values="0 0 0 0 0 0 0 0 0 0 0 0 0 0 0 0 0 0 127 0" result="hardAlpha"/>
<feOffset dy="4"/>
<feGaussianBlur stdDeviation="2"/>
<feComposite in2="hardAlpha" operator="out"/>
<feColorMatrix type="matrix" values="0 0 0 0 0 0 0 0 0 0 0 0 0 0 0 0 0 0 0.25 0"/>
<feBlend mode="normal" in2="BackgroundImageFix" result="effect1_dropShadow"/>
<feBlend mode="normal" in="SourceGraphic" in2="effect1_dropShadow" result="shape"/>
</filter>
</defs>
</svg>
